<svg width="56" height="39" viewBox="0 0 56 39" fill="none" xmlns="http://www.w3.org/2000/svg">
<path fill-rule="evenodd" clip-rule="evenodd" d="M20 11.9768L14 8.33521L8 11.9768V19.7803L20 30.0115L32 19.7803V11.9768L26 8.33521L20 11.9768Z" fill="#EC1D24"/>
<path d="M42.6875 18.2749H43.5781C43.974 18.2749 44.3021 18.1916 44.5625 18.0249C44.8229 17.853 45.0156 17.6213 45.1406 17.3296C45.2708 17.0327 45.3359 16.6994 45.3359 16.3296C45.3359 15.8921 45.2786 15.5249 45.1641 15.228C45.0495 14.9312 44.8776 14.7072 44.6484 14.5562C44.4245 14.4051 44.1406 14.3296 43.7969 14.3296C43.474 14.3296 43.1927 14.4103 42.9531 14.5718C42.7135 14.728 42.5286 14.952 42.3984 15.2437C42.2682 15.5353 42.2031 15.8791 42.2031 16.2749H40.8281C40.8281 15.6968 40.9479 15.1708 41.1875 14.6968C41.4323 14.2228 41.776 13.8452 42.2188 13.564C42.6667 13.2827 43.1927 13.1421 43.7969 13.1421C44.375 13.1421 44.8828 13.2645 45.3203 13.5093C45.7578 13.7489 46.099 14.1083 46.3438 14.5874C46.5938 15.0614 46.7188 15.6525 46.7188 16.3609C46.7188 16.6473 46.6641 16.9546 46.5547 17.2827C46.4505 17.6056 46.2812 17.9077 46.0469 18.189C45.8177 18.4702 45.5156 18.702 45.1406 18.8843C44.7708 19.0614 44.3177 19.1499 43.7812 19.1499H42.6875V18.2749ZM42.6875 19.4624V18.5952H43.7812C44.4167 18.5952 44.9349 18.6812 45.3359 18.853C45.737 19.0249 46.0469 19.2541 46.2656 19.5405C46.4844 19.827 46.6354 20.1421 46.7188 20.4859C46.8073 20.8244 46.8516 21.1629 46.8516 21.5015C46.8516 22.0327 46.7734 22.5041 46.6172 22.9155C46.4661 23.327 46.25 23.676 45.9688 23.9624C45.6927 24.2489 45.3698 24.465 45 24.6109C44.6302 24.7567 44.2266 24.8296 43.7891 24.8296C43.362 24.8296 42.9661 24.7593 42.6016 24.6187C42.237 24.478 41.9167 24.2749 41.6406 24.0093C41.3646 23.7385 41.1484 23.4077 40.9922 23.0171C40.8411 22.6213 40.7656 22.1708 40.7656 21.6655H42.1484C42.1484 22.0614 42.2135 22.4077 42.3438 22.7046C42.474 23.0015 42.6615 23.2333 42.9062 23.3999C43.151 23.5614 43.4453 23.6421 43.7891 23.6421C44.1328 23.6421 44.4297 23.5666 44.6797 23.4155C44.9297 23.2593 45.1224 23.0249 45.2578 22.7124C45.3984 22.3999 45.4688 22.0067 45.4688 21.5327C45.4688 21.0588 45.3906 20.6708 45.2344 20.3687C45.0833 20.0614 44.8672 19.8348 44.5859 19.689C44.3047 19.5379 43.9688 19.4624 43.5781 19.4624H42.6875Z" fill="white"/>
</svg>
